<mxfile host="app.diagrams.net" modified="2024-05-13T14:34:41.676Z" agent="Mozilla/5.0 (Windows NT 10.0; Win64; x64) AppleWebKit/537.36 (KHTML, like Gecko) Chrome/122.0.0.0 Safari/537.36" version="24.3.1" etag="7SYSlWC4RoEXShCcAgU2" type="github">
  <diagram name="Page-1" id="R7tkVovCSRG-hz7lbjan">
    <mxGraphModel>
      <root>
        <mxCell id="0" />
        <mxCell id="1" parent="0" />
      </root>
    </mxGraphModel>
  </diagram>
</mxfile>
